#Comment line ignore any data following # character 
#Hierarchical Translation and Rotation (.htr) file 
[Header]	
#Header keywords are followed by a single value 
FileType HTR		#Single word string
DataType HTRS		#Translation followed by rotation and scale data
FileVersion 1		#integer
NumSegments 14		#integer
NumFrames 10		#integer
DataFrameRate 30		#integer, data frame rate in this file
EulerRotationOrder ZYX
CalibrationUnits mm
RotationUnits Degrees
GlobalAxisofGravity Y
BoneLengthAxis Y
ScaleFactor 1.00
[SegmentNames&Hierarchy]
#CHILD	PARENT
MASTER GLOBAL
weapon MASTER
barrel_root weapon
middle_left_energyLow_part1 weapon
middle_left_energyLow_part2 weapon
middle_left_root weapon
middle_right_energyLow_part1 weapon
middle_top weapon
barrel1_top_root barrel_root
barrel2_top_root barrel_root
barrel3_top_root barrel_root
barrel1_top_back barrel1_top_root
barrel2_top_back barrel2_top_root
barrel3_top_back barrel3_top_root
[BasePosition]
#SegmentName Tx, Ty, Tz, Rx, Ry, Rz, BoneLength
MASTER 0.000000 0.000000 0.000000 -90.000000 0.000000 0.000000 10.000000 
weapon 0.000000 0.000000 0.000000 0.000000 0.000000 0.000000 10.000000 
barrel_root 0.000000 0.000000 0.000000 0.000000 0.000000 0.000000 10.000000 
middle_left_energyLow_part1 0.000000 0.000000 0.000000 0.000000 0.000000 0.000000 10.000000 
middle_left_energyLow_part2 0.000000 0.000000 0.000000 0.000000 0.000000 0.000000 10.000000 
middle_left_root 0.000000 0.000000 0.000000 0.000000 0.000000 0.000000 10.000000 
middle_right_energyLow_part1 0.000000 0.000000 0.000000 0.000000 0.000000 0.000000 10.000000 
middle_top 0.000000 0.000000 0.000000 0.000000 0.000000 0.000000 10.000000 
barrel1_top_root 0.000000 0.000000 0.000000 0.000000 0.000000 0.000000 10.000000 
barrel2_top_root 0.000000 0.000000 0.000000 0.000000 0.000000 0.000000 10.000000 
barrel3_top_root 0.000000 0.000000 0.000000 0.000000 0.000000 0.000000 10.000000 
barrel1_top_back 0.000000 0.000000 0.000000 0.000000 0.000000 0.000000 10.000000 
barrel2_top_back 0.000000 0.000000 0.000000 0.000000 0.000000 0.000000 10.000000 
barrel3_top_back 0.000000 0.000000 0.000000 0.000000 0.000000 0.000000 10.000000 
#Beginning of Data. Separated by tabs
#Fr	Tx	Ty	Tz	Rx	Ry	Rz	SF
[MASTER]
37 0.000000 0.000000 0.000000 0.000000 -0.000000 0.000000 0.000000
38 0.000000 0.000000 0.000000 0.000000 -0.000000 0.000000 0.000000
39 0.000000 0.000000 0.000000 0.000000 -0.000000 0.000000 0.000000
40 0.000000 0.000000 0.000000 0.000000 -0.000000 0.000000 0.000000
41 0.000000 0.000000 0.000000 0.000000 -0.000000 0.000000 0.000000
42 0.000000 0.000000 0.000000 0.000000 -0.000000 0.000000 0.000000
43 0.000000 0.000000 0.000000 0.000000 -0.000000 0.000000 0.000000
44 0.000000 0.000000 0.000000 0.000000 -0.000000 0.000000 0.000000
45 0.000000 0.000000 0.000000 0.000000 -0.000000 0.000000 0.000000
46 0.000000 0.000000 0.000000 0.000000 -0.000000 0.000000 0.000000
[weapon]
37 -0.000057 -104.980545 30.104597 0.000000 0.000000 -0.000020 109.211723
38 0.000000 -104.980545 30.104675 0.000000 0.000000 -0.000020 109.211746
39 -0.000000 -104.980431 30.104521 0.000000 0.000000 -0.000020 109.211601
40 -0.000019 -104.980469 30.104597 0.000000 0.000000 -0.000020 109.211655
41 0.000000 -104.980507 30.104597 0.000000 0.000000 -0.000020 109.211693
42 -0.000019 -104.980507 30.104597 0.000000 0.000000 -0.000020 109.211693
43 -0.000019 -104.980507 30.104521 0.000000 0.000000 -0.000020 109.211670
44 -0.000019 -104.980469 30.104675 0.000000 0.000000 -0.000020 109.211678
45 -0.000057 -104.980507 30.104675 0.000000 0.000000 -0.000020 109.211708
46 -0.000038 -104.980507 30.104675 0.000000 0.000000 -0.000020 109.211708
[barrel_root]
37 0.000029 273.237122 -55.258595 0.001307 -37.818287 0.001307 278.768768
38 0.000052 274.543976 -55.258617 0.001290 -40.957233 0.001290 280.049835
39 0.000076 275.850830 -55.258636 0.001275 -44.096180 0.001275 281.331116
40 0.000050 277.323639 -55.258652 0.001261 -47.186924 0.001261 282.775391
41 0.000023 278.796417 -55.258667 0.001248 -50.216175 0.001248 284.219910
42 -0.000004 280.269165 -55.258678 0.001237 -53.172802 0.001237 285.664703
43 -0.000031 281.741974 -55.258694 0.001227 -56.028053 0.001227 287.109833
44 -0.000057 283.214752 -55.258709 0.001219 -58.768341 0.001219 288.555237
45 -0.000048 284.807709 -55.258705 0.001211 -61.373466 0.001211 290.118866
46 -0.000040 286.400635 -55.258698 0.001205 -63.821827 0.001205 291.682800
[middle_left_energyLow_part1]
37 -135.055908 -30.653152 -4.391504 0.001595 -4.747554 0.001595 138.560455
38 -133.516022 -30.653152 -1.223373 0.001588 -5.272356 0.001588 136.995041
39 -131.905029 -30.653162 2.143243 0.001582 -5.797159 0.001582 135.436874
40 -130.294052 -30.653172 5.509847 0.001575 -6.351853 0.001575 133.964615
41 -128.683075 -30.653181 8.876438 0.001568 -6.931472 0.001568 132.581085
42 -127.072098 -30.653191 12.243054 0.001561 -7.531095 0.001561 131.289108
43 -125.485184 -30.653204 15.652951 0.001553 -8.145802 0.001553 130.119812
44 -123.898270 -30.653219 19.062836 0.001546 -8.785540 0.001546 129.049561
45 -122.311356 -30.653236 22.472744 0.001538 -9.445405 0.001538 128.080887
46 -120.724442 -30.653252 25.882643 0.001531 -10.125438 0.001531 127.216042
[middle_left_energyLow_part2]
37 -158.708694 -29.303537 -44.070740 0.002018 18.880390 0.002018 167.300262
38 -157.628952 -29.398815 -40.821529 0.002063 20.667801 0.002063 165.461700
39 -156.549210 -29.494093 -37.572308 0.002114 22.538816 0.002114 163.674179
40 -155.396301 -29.595776 -34.103092 0.002167 24.409819 0.002167 161.823792
41 -154.243393 -29.697456 -30.633886 0.002225 26.336227 0.002225 160.035614
42 -153.090485 -29.799137 -27.164654 0.002289 28.292315 0.002289 158.311722
43 -151.937576 -29.900818 -23.695435 0.002356 30.248392 0.002356 156.654266
44 -150.756760 -30.004986 -20.142080 0.002430 32.230652 0.002430 155.027740
45 -149.575928 -30.109154 -16.588699 0.002509 34.222878 0.002509 153.475418
46 -148.395111 -30.213322 -13.035330 0.002595 36.215420 0.002595 151.999588
[middle_left_root]
37 -98.964600 -30.653000 -45.949810 0.003934 -55.282406 179.996078 113.335709
38 -101.637848 -30.653000 -43.075104 0.003987 -55.763062 179.996017 114.565804
39 -104.441513 -30.652994 -40.079071 0.004044 -56.255985 179.995956 115.991241
40 -107.245171 -30.652988 -37.083054 0.004102 -56.750072 179.995895 117.542694
41 -110.048813 -30.652983 -34.087044 0.004163 -57.250954 179.995834 119.215240
42 -112.852486 -30.652977 -31.091013 0.004225 -57.747372 179.995773 121.003883
43 -115.656143 -30.652971 -28.094992 0.004290 -58.245571 179.995712 122.903526
44 -118.459793 -30.652966 -25.098986 0.004357 -58.743774 179.995651 124.909111
45 -121.263451 -30.652960 -22.102953 0.004425 -59.238129 179.995575 127.015625
46 -123.960220 -30.652987 -19.247984 0.004494 -59.722301 179.995514 129.136459
[middle_right_energyLow_part1]
37 125.650406 -29.615250 -4.391556 0.001733 -4.750876 179.998276 129.167999
38 124.110481 -29.615250 -1.223450 0.001741 -5.260771 179.998260 127.600838
39 122.499519 -29.615250 2.143148 0.001750 -5.795531 179.998245 126.046768
40 120.888565 -29.615250 5.509733 0.001760 -6.350224 179.998245 124.585175
41 119.277618 -29.615250 8.876304 0.001770 -6.929843 179.998230 123.219322
42 117.666656 -29.615250 12.242902 0.001780 -7.529465 179.998215 121.952423
43 116.079742 -29.615242 15.652815 0.001792 -8.149131 179.998199 120.816307
44 114.492836 -29.615234 19.062714 0.001803 -8.788868 179.998199 119.787560
45 112.905914 -29.615225 22.472639 0.001815 -9.448733 179.998184 118.868950
46 111.319000 -29.615217 25.882549 0.001828 -10.136405 179.998184 118.063065
[middle_top]
37 -3.220495 12.307053 59.132381 1.178754 0.001643 0.001677 60.485321
38 -3.220482 8.936996 59.132381 1.297457 0.001641 0.001678 59.890568
39 -3.220482 5.425440 59.132393 1.416160 0.001639 0.001680 59.468033
40 -3.220482 1.913896 59.132401 1.539817 0.001637 0.001682 59.250954
41 -3.220482 -1.597634 59.132412 1.668414 0.001635 0.001684 59.241592
42 -3.220482 -5.109190 59.132423 1.797015 0.001634 0.001686 59.440044
43 -3.220482 -8.620734 59.132431 1.930569 0.001632 0.001687 59.844238
44 -3.220482 -12.132264 59.132442 2.064120 0.001630 0.001689 60.450054
45 -3.220482 -15.643820 59.132450 2.197680 0.001628 0.001691 61.251507
46 -3.220482 -19.155363 59.132462 2.336189 0.001626 0.001693 62.241043
[barrel1_top_root]
37 0.000081 96.240509 0.000132 0.000000 -0.000000 0.000000 96.240509
38 0.000081 96.240509 0.000132 0.000000 -0.000000 0.000000 96.240509
39 0.000081 96.240509 0.000132 0.000000 -0.000000 0.000000 96.240509
40 0.000081 96.240509 0.000132 0.000000 -0.000000 0.000000 96.240509
41 0.000081 96.240509 0.000132 0.000000 -0.000000 0.000000 96.240509
42 0.000081 96.240509 0.000132 0.000000 -0.000000 0.000000 96.240509
43 0.000081 96.240509 0.000132 0.000000 -0.000000 0.000000 96.240509
44 0.000081 96.240509 0.000132 0.000000 -0.000000 0.000000 96.240509
45 0.000081 96.240509 0.000132 0.000000 -0.000000 0.000000 96.240509
46 0.000081 96.240509 0.000132 0.000000 -0.000000 0.000000 96.240509
[barrel2_top_root]
37 -0.000009 124.139923 0.000132 179.998825 -76.804192 179.998825 124.139923
38 -0.000009 124.139923 0.000132 179.998825 -78.754898 179.998825 124.139923
39 -0.000009 124.139923 0.000132 179.998825 -80.724953 179.998825 124.139923
40 -0.000009 124.139923 0.000132 179.998825 -82.695000 179.998825 124.139923
41 -0.000009 124.139923 0.000132 179.998825 -84.668800 179.998825 124.139923
42 -0.000009 124.139923 0.000132 179.998825 -86.642342 179.998825 124.139923
43 -0.000009 124.139923 0.000132 179.998825 -88.595421 179.998825 124.139923
44 -0.000009 124.139923 0.000132 0.000000 -89.501503 -0.000000 124.139923
45 -0.000009 124.139923 0.000132 0.001174 -87.597679 0.001174 124.139923
46 -0.000009 124.139923 0.000132 0.001174 -85.755089 0.001174 124.139923
[barrel3_top_root]
37 0.000101 69.591400 0.000123 179.989777 76.815125 179.989777 69.591400
38 0.000101 69.591400 0.000123 179.988022 78.752777 179.988022 69.591400
39 0.000101 69.591400 0.000123 179.985489 80.726105 179.985489 69.591400
40 0.000101 69.591400 0.000123 179.981567 82.699402 179.981567 69.591400
41 0.000101 69.591400 0.000123 179.974762 84.669868 179.974762 69.591400
42 0.000101 69.591400 0.000123 179.959961 86.640076 179.959961 69.591400
43 0.000101 69.591400 0.000123 179.904388 88.593193 179.904388 69.591400
44 0.000101 69.591400 0.000123 0.000000 89.479988 0.000011 69.591400
45 0.000101 69.591400 0.000123 0.056450 87.617149 0.056450 69.591400
46 0.000101 69.591400 0.000123 0.031673 85.752869 0.031673 69.591400
[barrel1_top_back]
37 -3.343935 98.041893 186.671844 -7.897903 0.001770 0.001541 210.878571
38 -3.343935 98.041893 186.671844 -8.691296 0.001781 0.001529 210.878571
39 -3.343935 98.041893 186.671844 -9.509916 0.001792 0.001516 210.878571
40 -3.343935 98.041893 186.671844 -10.348891 0.001803 0.001503 210.878571
41 -3.343935 98.041893 186.671844 -11.208294 0.001814 0.001490 210.878571
42 -3.343935 98.041893 186.671844 -12.088226 0.001825 0.001476 210.878571
43 -3.343935 98.041893 186.671844 -12.991675 0.001837 0.001461 210.878571
44 -3.343935 98.041893 186.671844 -13.895120 0.001848 0.001447 210.878571
45 -3.343935 98.041893 186.671844 -14.822289 0.001860 0.001432 210.878571
46 -3.343935 98.041893 186.671844 -15.765959 0.001872 0.001416 210.878571
[barrel2_top_back]
37 3.886122 70.142326 185.630630 -4.024956 0.001717 0.001600 198.478668
38 3.886122 70.142326 185.630630 -4.425827 0.001723 0.001594 198.478668
39 3.886122 70.142326 185.630630 -4.849065 0.001728 0.001588 198.478668
40 3.886122 70.142326 185.630630 -5.272300 0.001734 0.001582 198.478668
41 3.886122 70.142326 185.630630 -5.708019 0.001740 0.001575 198.478668
42 3.886122 70.142326 185.630630 -6.158686 0.001746 0.001568 198.478668
43 3.886122 70.142326 185.630630 -6.619405 0.001753 0.001561 198.478668
44 3.886122 70.142326 185.630630 -7.080121 0.001759 0.001554 198.478668
45 3.886122 70.142326 185.630630 -7.553463 0.001765 0.001547 198.478668
46 3.886122 70.142326 185.630630 -8.026802 0.001772 0.001540 198.478668
[barrel3_top_back]
37 -0.050068 125.495209 180.152344 -5.925910 0.001743 0.001572 219.553894
38 -0.050068 125.495209 180.152344 -6.532747 0.001752 0.001562 219.553894
39 -0.050068 125.495209 180.152344 -7.139585 0.001760 0.001553 219.553894
40 -0.050068 125.495209 180.152344 -7.773978 0.001768 0.001543 219.553894
41 -0.050068 125.495209 180.152344 -8.423484 0.001777 0.001533 219.553894
42 -0.050068 125.495209 180.152344 -9.103352 0.001786 0.001523 219.553894
43 -0.050068 125.495209 180.152344 -9.783245 0.001795 0.001512 219.553894
44 -0.050068 125.495209 180.152344 -10.463110 0.001804 0.001501 219.553894
45 -0.050068 125.495209 180.152344 -11.168539 0.001813 0.001490 219.553894
46 -0.050068 125.495209 180.152344 -11.879361 0.001823 0.001479 219.553894
